<?xml version="1.0" standalone="no"?>
<!DOCTYPE svg PUBLIC "-//W3C//DTD SVG 20010904//EN"
 "http://www.w3.org/TR/2001/REC-SVG-20010904/DTD/svg10.dtd">
<svg version="1.0" xmlns="http://www.w3.org/2000/svg"
 width="260.000000pt" height="260.000000pt" viewBox="0 0 260.000000 260.000000"
 preserveAspectRatio="xMidYMid meet">
<metadata>
Created by potrace 1.11, written by Peter Selinger 2001-2013
</metadata>
<g transform="translate(0.000000,260.000000) scale(0.100000,-0.100000)"
fill="#000000" stroke="none">
<path d="M1220 2502 c-73 -7 -181 -25 -230 -39 -334 -91 -602 -306 -764 -613
-46 -88 -103 -253 -112 -324 -3 -23 -9 -57 -14 -77 -8 -42 -6 -271 5 -339 44
-297 225 -593 475 -780 354 -262 824 -310 1226 -124 42 19 88 43 103 53 14 10
53 36 85 57 87 57 233 206 298 304 116 177 174 331 202 540 8 55 9 240 2 272
-3 12 -8 41 -11 63 -26 181 -118 390 -240 545 -176 221 -406 368 -671 430
-100 24 -280 40 -354 32z m300 -140 c214 -45 393 -144 551 -303 202 -203 310
-466 311 -754 1 -183 -30 -319 -108 -481 -64 -135 -189 -293 -292 -371 -13
-10 -36 -27 -50 -39 -94 -72 -273 -152 -407 -180 -63 -14 -92 -17 -210 -20
-126 -3 -161 1 -291 32 -340 80 -645 363 -756 699 -28 84 -31 97 -49 205 -11
71 -10 264 2 320 4 19 10 49 13 67 10 56 67 206 103 273 138 254 362 439 633
525 47 14 103 29 125 32 22 3 60 8 85 12 78 12 242 4 340 -17z"/>
<path d="M891 1959 c-105 -20 -208 -113 -251 -226 -18 -47 -21 -73 -18 -138 9
-179 125 -309 323 -360 94 -24 258 -20 370 9 6 2 32 6 59 11 209 34 391 -29
458 -159 30 -57 30 -165 0 -222 -51 -99 -160 -148 -260 -119 -117 35 -198 163
-217 341 -7 63 -8 64 -34 60 -14 -2 -40 -5 -58 -5 l-32 -1 5 -52 c19 -205 116
-373 252 -436 253 -117 532 108 480 386 -37 202 -228 334 -482 333 -44 0 -92
-3 -106 -6 -44 -9 -124 -25 -150 -31 -79 -16 -239 -8 -295 15 -11 5 -32 13
-47 20 -47 18 -116 89 -134 138 -21 53 -22 123 -4 177 27 82 125 156 207 156
145 0 247 -120 277 -325 l12 -80 55 0 54 0 -3 65 c-8 199 -123 382 -274 436
-52 19 -127 24 -187 13z"/>
</g>
</svg>
